<mxfile host="Electron" modified="2023-09-16T16:50:22.249Z" agent="Mozilla/5.0 (Windows NT 10.0; Win64; x64) AppleWebKit/537.36 (KHTML, like Gecko) draw.io/21.1.2 Chrome/106.0.5249.199 Electron/21.4.3 Safari/537.36" etag="5faxBmT_-CUBAOv8sol5" version="21.1.2" type="device">
  <diagram name="Page-1" id="FBmNDb1sxePb0-YAbIyb">
    <mxGraphModel dx="1170" dy="570" grid="0" gridSize="10" guides="1" tooltips="1" connect="1" arrows="1" fold="1" page="1" pageScale="1" pageWidth="850" pageHeight="1100" math="0" shadow="0">
      <root>
        <mxCell id="0" />
        <mxCell id="1" parent="0" />
        <mxCell id="qSNPX_nqW3xThcIXgzx_-1" value="chat" style="rounded=1;whiteSpace=wrap;html=1;" vertex="1" parent="1">
          <mxGeometry x="140" y="75" width="60" height="30" as="geometry" />
        </mxCell>
        <mxCell id="qSNPX_nqW3xThcIXgzx_-2" value="lawyer" style="rounded=1;whiteSpace=wrap;html=1;" vertex="1" parent="1">
          <mxGeometry x="400" y="100" width="60" height="30" as="geometry" />
        </mxCell>
        <mxCell id="qSNPX_nqW3xThcIXgzx_-3" value="user" style="rounded=1;whiteSpace=wrap;html=1;" vertex="1" parent="1">
          <mxGeometry x="316" y="251.5" width="60" height="30" as="geometry" />
        </mxCell>
        <mxCell id="qSNPX_nqW3xThcIXgzx_-4" value="case" style="rounded=1;whiteSpace=wrap;html=1;" vertex="1" parent="1">
          <mxGeometry x="580" y="315" width="60" height="30" as="geometry" />
        </mxCell>
        <mxCell id="qSNPX_nqW3xThcIXgzx_-5" value="review" style="rounded=1;whiteSpace=wrap;html=1;" vertex="1" parent="1">
          <mxGeometry x="563" y="197.5" width="60" height="30" as="geometry" />
        </mxCell>
        <mxCell id="qSNPX_nqW3xThcIXgzx_-6" value="Help" style="rounded=1;whiteSpace=wrap;html=1;" vertex="1" parent="1">
          <mxGeometry x="313" y="375" width="60" height="30" as="geometry" />
        </mxCell>
        <mxCell id="qSNPX_nqW3xThcIXgzx_-7" value="follower" style="rounded=1;whiteSpace=wrap;html=1;" vertex="1" parent="1">
          <mxGeometry x="120" y="210" width="70" height="30" as="geometry" />
        </mxCell>
        <mxCell id="qSNPX_nqW3xThcIXgzx_-8" value="follower" style="ellipse;whiteSpace=wrap;html=1;" vertex="1" parent="1">
          <mxGeometry x="60" y="240" width="60" height="35" as="geometry" />
        </mxCell>
        <mxCell id="qSNPX_nqW3xThcIXgzx_-9" value="followee" style="ellipse;whiteSpace=wrap;html=1;" vertex="1" parent="1">
          <mxGeometry x="124" y="249" width="70" height="35" as="geometry" />
        </mxCell>
        <mxCell id="qSNPX_nqW3xThcIXgzx_-10" value="timestamp" style="ellipse;whiteSpace=wrap;html=1;" vertex="1" parent="1">
          <mxGeometry x="40" y="195" width="70" height="35" as="geometry" />
        </mxCell>
        <mxCell id="qSNPX_nqW3xThcIXgzx_-12" value="query" style="ellipse;whiteSpace=wrap;html=1;" vertex="1" parent="1">
          <mxGeometry x="239" y="380" width="60" height="40" as="geometry" />
        </mxCell>
        <mxCell id="qSNPX_nqW3xThcIXgzx_-13" value="resolved" style="ellipse;whiteSpace=wrap;html=1;" vertex="1" parent="1">
          <mxGeometry x="280" y="420" width="60" height="30" as="geometry" />
        </mxCell>
        <mxCell id="qSNPX_nqW3xThcIXgzx_-14" value="timestamp" style="ellipse;whiteSpace=wrap;html=1;" vertex="1" parent="1">
          <mxGeometry x="388" y="375" width="70" height="40" as="geometry" />
        </mxCell>
        <mxCell id="qSNPX_nqW3xThcIXgzx_-15" value="image" style="ellipse;whiteSpace=wrap;html=1;" vertex="1" parent="1">
          <mxGeometry x="350" y="420" width="60" height="30" as="geometry" />
        </mxCell>
        <mxCell id="qSNPX_nqW3xThcIXgzx_-16" value="client" style="ellipse;whiteSpace=wrap;html=1;" vertex="1" parent="1">
          <mxGeometry x="500" y="340" width="60" height="30" as="geometry" />
        </mxCell>
        <mxCell id="qSNPX_nqW3xThcIXgzx_-17" value="lawyer" style="ellipse;whiteSpace=wrap;html=1;" vertex="1" parent="1">
          <mxGeometry x="550" y="364.5" width="65" height="30" as="geometry" />
        </mxCell>
        <mxCell id="qSNPX_nqW3xThcIXgzx_-18" value="documents" style="ellipse;whiteSpace=wrap;html=1;" vertex="1" parent="1">
          <mxGeometry x="620" y="363" width="73" height="33" as="geometry" />
        </mxCell>
        <mxCell id="qSNPX_nqW3xThcIXgzx_-19" value="stage" style="ellipse;whiteSpace=wrap;html=1;" vertex="1" parent="1">
          <mxGeometry x="673" y="331" width="70" height="35" as="geometry" />
        </mxCell>
        <mxCell id="qSNPX_nqW3xThcIXgzx_-21" value="Incentives" style="rounded=1;whiteSpace=wrap;html=1;" vertex="1" parent="1">
          <mxGeometry x="650" y="40" width="70" height="40" as="geometry" />
        </mxCell>
        <mxCell id="qSNPX_nqW3xThcIXgzx_-22" value="lawyer" style="ellipse;whiteSpace=wrap;html=1;" vertex="1" parent="1">
          <mxGeometry x="590" y="85" width="60" height="35" as="geometry" />
        </mxCell>
        <mxCell id="qSNPX_nqW3xThcIXgzx_-23" value="timestamp" style="ellipse;whiteSpace=wrap;html=1;" vertex="1" parent="1">
          <mxGeometry x="655" y="104" width="70" height="40" as="geometry" />
        </mxCell>
        <mxCell id="qSNPX_nqW3xThcIXgzx_-24" value="type" style="ellipse;whiteSpace=wrap;html=1;" vertex="1" parent="1">
          <mxGeometry x="555" y="40" width="65" height="40" as="geometry" />
        </mxCell>
        <mxCell id="qSNPX_nqW3xThcIXgzx_-26" value="comment" style="ellipse;whiteSpace=wrap;html=1;" vertex="1" parent="1">
          <mxGeometry x="760" y="45" width="70" height="30" as="geometry" />
        </mxCell>
        <mxCell id="qSNPX_nqW3xThcIXgzx_-27" value="amount" style="ellipse;whiteSpace=wrap;html=1;" vertex="1" parent="1">
          <mxGeometry x="730" y="90" width="60" height="30" as="geometry" />
        </mxCell>
        <mxCell id="qSNPX_nqW3xThcIXgzx_-28" value="payment" style="rounded=1;whiteSpace=wrap;html=1;" vertex="1" parent="1">
          <mxGeometry x="670" y="440" width="80" height="30" as="geometry" />
        </mxCell>
        <mxCell id="qSNPX_nqW3xThcIXgzx_-29" value="&lt;u&gt;t_id&lt;/u&gt;" style="ellipse;whiteSpace=wrap;html=1;" vertex="1" parent="1">
          <mxGeometry x="590" y="460" width="60" height="30" as="geometry" />
        </mxCell>
        <mxCell id="qSNPX_nqW3xThcIXgzx_-30" value="&lt;u&gt;c_id&lt;/u&gt;" style="ellipse;whiteSpace=wrap;html=1;" vertex="1" parent="1">
          <mxGeometry x="495" y="305" width="60" height="30" as="geometry" />
        </mxCell>
        <mxCell id="qSNPX_nqW3xThcIXgzx_-31" value="&lt;u&gt;c_id&lt;/u&gt;" style="ellipse;whiteSpace=wrap;html=1;" vertex="1" parent="1">
          <mxGeometry x="650" y="490" width="60" height="30" as="geometry" />
        </mxCell>
        <mxCell id="qSNPX_nqW3xThcIXgzx_-32" value="stage" style="ellipse;whiteSpace=wrap;html=1;" vertex="1" parent="1">
          <mxGeometry x="720" y="490" width="60" height="30" as="geometry" />
        </mxCell>
        <mxCell id="qSNPX_nqW3xThcIXgzx_-34" style="edgeStyle=orthogonalEdgeStyle;rounded=0;orthogonalLoop=1;jettySize=auto;html=1;exitX=0.5;exitY=1;exitDx=0;exitDy=0;" edge="1" parent="1" source="qSNPX_nqW3xThcIXgzx_-31" target="qSNPX_nqW3xThcIXgzx_-31">
          <mxGeometry relative="1" as="geometry" />
        </mxCell>
        <mxCell id="qSNPX_nqW3xThcIXgzx_-35" value="status" style="ellipse;whiteSpace=wrap;html=1;" vertex="1" parent="1">
          <mxGeometry x="770" y="450" width="60" height="30" as="geometry" />
        </mxCell>
        <mxCell id="qSNPX_nqW3xThcIXgzx_-37" value="due" style="ellipse;whiteSpace=wrap;html=1;" vertex="1" parent="1">
          <mxGeometry x="760" y="405" width="60" height="30" as="geometry" />
        </mxCell>
        <mxCell id="qSNPX_nqW3xThcIXgzx_-39" value="&lt;u&gt;r_id&lt;/u&gt;" style="ellipse;whiteSpace=wrap;html=1;" vertex="1" parent="1">
          <mxGeometry x="511" y="230" width="55" height="30" as="geometry" />
        </mxCell>
        <mxCell id="qSNPX_nqW3xThcIXgzx_-41" value="comment" style="ellipse;whiteSpace=wrap;html=1;" vertex="1" parent="1">
          <mxGeometry x="575" y="240" width="65" height="30" as="geometry" />
        </mxCell>
        <mxCell id="qSNPX_nqW3xThcIXgzx_-42" value="average rating" style="ellipse;whiteSpace=wrap;html=1;" vertex="1" parent="1">
          <mxGeometry x="633" y="202.5" width="67.5" height="40" as="geometry" />
        </mxCell>
        <mxCell id="qSNPX_nqW3xThcIXgzx_-43" value="name" style="ellipse;whiteSpace=wrap;html=1;" vertex="1" parent="1">
          <mxGeometry x="239" y="265" width="60" height="30" as="geometry" />
        </mxCell>
        <mxCell id="qSNPX_nqW3xThcIXgzx_-44" value="joinedOn" style="ellipse;whiteSpace=wrap;html=1;" vertex="1" parent="1">
          <mxGeometry x="280" y="293" width="65" height="35" as="geometry" />
        </mxCell>
        <mxCell id="qSNPX_nqW3xThcIXgzx_-45" value="rating" style="ellipse;whiteSpace=wrap;html=1;" vertex="1" parent="1">
          <mxGeometry x="348" y="300" width="60" height="25" as="geometry" />
        </mxCell>
        <mxCell id="qSNPX_nqW3xThcIXgzx_-46" value="email" style="ellipse;whiteSpace=wrap;html=1;" vertex="1" parent="1">
          <mxGeometry x="393" y="270" width="60" height="30" as="geometry" />
        </mxCell>
        <mxCell id="qSNPX_nqW3xThcIXgzx_-47" value="password" style="ellipse;whiteSpace=wrap;html=1;" vertex="1" parent="1">
          <mxGeometry x="246" y="230" width="70" height="30" as="geometry" />
        </mxCell>
        <mxCell id="qSNPX_nqW3xThcIXgzx_-48" value="username" style="ellipse;whiteSpace=wrap;html=1;" vertex="1" parent="1">
          <mxGeometry x="308" y="207.5" width="80" height="35" as="geometry" />
        </mxCell>
        <mxCell id="qSNPX_nqW3xThcIXgzx_-49" value="perso. details" style="ellipse;whiteSpace=wrap;html=1;" vertex="1" parent="1">
          <mxGeometry x="378" y="230" width="85" height="30" as="geometry" />
        </mxCell>
        <mxCell id="qSNPX_nqW3xThcIXgzx_-50" value="s_id" style="ellipse;whiteSpace=wrap;html=1;" vertex="1" parent="1">
          <mxGeometry x="69" y="85" width="60" height="35" as="geometry" />
        </mxCell>
        <mxCell id="qSNPX_nqW3xThcIXgzx_-51" value="r_id" style="ellipse;whiteSpace=wrap;html=1;" vertex="1" parent="1">
          <mxGeometry x="135" y="115" width="70" height="35" as="geometry" />
        </mxCell>
        <mxCell id="qSNPX_nqW3xThcIXgzx_-52" value="text" style="ellipse;whiteSpace=wrap;html=1;" vertex="1" parent="1">
          <mxGeometry x="210" y="90" width="60" height="30" as="geometry" />
        </mxCell>
        <mxCell id="qSNPX_nqW3xThcIXgzx_-53" value="timestamp" style="ellipse;whiteSpace=wrap;html=1;" vertex="1" parent="1">
          <mxGeometry x="205" y="45" width="70" height="35" as="geometry" />
        </mxCell>
        <mxCell id="qSNPX_nqW3xThcIXgzx_-54" value="status (seen/sent)" style="ellipse;whiteSpace=wrap;html=1;" vertex="1" parent="1">
          <mxGeometry x="98" y="30" width="80" height="40" as="geometry" />
        </mxCell>
        <mxCell id="qSNPX_nqW3xThcIXgzx_-55" value="documents" style="ellipse;whiteSpace=wrap;html=1;" vertex="1" parent="1">
          <mxGeometry x="471.5" y="95" width="70" height="40" as="geometry" />
        </mxCell>
        <mxCell id="qSNPX_nqW3xThcIXgzx_-56" value="name" style="ellipse;whiteSpace=wrap;html=1;" vertex="1" parent="1">
          <mxGeometry x="435" y="140" width="70" height="30" as="geometry" />
        </mxCell>
        <mxCell id="qSNPX_nqW3xThcIXgzx_-57" style="edgeStyle=orthogonalEdgeStyle;rounded=0;orthogonalLoop=1;jettySize=auto;html=1;exitX=0.5;exitY=1;exitDx=0;exitDy=0;" edge="1" parent="1" source="qSNPX_nqW3xThcIXgzx_-9" target="qSNPX_nqW3xThcIXgzx_-9">
          <mxGeometry relative="1" as="geometry" />
        </mxCell>
        <mxCell id="qSNPX_nqW3xThcIXgzx_-58" value="username" style="ellipse;whiteSpace=wrap;html=1;" vertex="1" parent="1">
          <mxGeometry x="320" y="67" width="77" height="38" as="geometry" />
        </mxCell>
        <mxCell id="qSNPX_nqW3xThcIXgzx_-59" value="passsword" style="ellipse;whiteSpace=wrap;html=1;" vertex="1" parent="1">
          <mxGeometry x="313" y="110" width="77" height="38" as="geometry" />
        </mxCell>
        <mxCell id="qSNPX_nqW3xThcIXgzx_-60" value="experience" style="ellipse;whiteSpace=wrap;html=1;" vertex="1" parent="1">
          <mxGeometry x="378" y="40" width="70" height="30" as="geometry" />
        </mxCell>
        <mxCell id="qSNPX_nqW3xThcIXgzx_-61" value="amount" style="ellipse;whiteSpace=wrap;html=1;" vertex="1" parent="1">
          <mxGeometry x="650" y="293" width="70" height="35" as="geometry" />
        </mxCell>
        <mxCell id="qSNPX_nqW3xThcIXgzx_-62" value="tags" style="ellipse;whiteSpace=wrap;html=1;" vertex="1" parent="1">
          <mxGeometry x="453" y="55" width="70" height="35" as="geometry" />
        </mxCell>
        <mxCell id="qSNPX_nqW3xThcIXgzx_-63" value="tier" style="ellipse;whiteSpace=wrap;html=1;" vertex="1" parent="1">
          <mxGeometry x="373" y="144" width="55" height="26" as="geometry" />
        </mxCell>
        <mxCell id="qSNPX_nqW3xThcIXgzx_-65" value="Document" style="rounded=1;whiteSpace=wrap;html=1;" vertex="1" parent="1">
          <mxGeometry x="84" y="325" width="60" height="30" as="geometry" />
        </mxCell>
        <mxCell id="qSNPX_nqW3xThcIXgzx_-66" value="d_id" style="ellipse;whiteSpace=wrap;html=1;" vertex="1" parent="1">
          <mxGeometry x="10" y="330" width="60" height="40" as="geometry" />
        </mxCell>
        <mxCell id="qSNPX_nqW3xThcIXgzx_-67" value="type" style="ellipse;whiteSpace=wrap;html=1;" vertex="1" parent="1">
          <mxGeometry x="43" y="373.5" width="60" height="30" as="geometry" />
        </mxCell>
        <mxCell id="qSNPX_nqW3xThcIXgzx_-68" value="verified" style="ellipse;whiteSpace=wrap;html=1;" vertex="1" parent="1">
          <mxGeometry x="158" y="320" width="70" height="40" as="geometry" />
        </mxCell>
        <mxCell id="qSNPX_nqW3xThcIXgzx_-69" value="timestamp" style="ellipse;whiteSpace=wrap;html=1;" vertex="1" parent="1">
          <mxGeometry x="114" y="370" width="67" height="37" as="geometry" />
        </mxCell>
      </root>
    </mxGraphModel>
  </diagram>
</mxfile>
